
<svg xmlns="http://www.w3.org/2000/svg" xmlns:xlink="http://www.w3.org/1999/xlink" width="527.95" height="201.72" viewBox="0 0 527.95 201.72" style="fill: url(#gradient_9-59)">
  <defs>
    <linearGradient id="gradient_9" data-name="gradient 9" x1="532.94" y1="31.17" x2="19.24" y2="31.17" gradientUnits="userSpaceOnUse">
      <stop offset="0" stop-color="#28aae1"></stop>
      <stop offset="1" stop-color="#8cc841"></stop>
    </linearGradient>
    <linearGradient id="gradient_9-59" x1="532.94" y1="3.3" x2="19.24" y2="3.3" xlink:href="#gradient_9"></linearGradient>
  </defs>
  <g id="Layer_2" data-name="Layer 2">
    <g id="Слой_1" data-name="Слой 1">
      <g>
        <g>
          <path d="M190.12,34.48H140.76a3.31,3.31,0,0,1,0-6.61h49.36a3.31,3.31,0,0,1,0,6.61Z"></path>
          <path d="M354.68,34.48h-146a3.31,3.31,0,0,1,0-6.61h146a3.31,3.31,0,0,1,0,6.61Z"></path>
          <path d="M354.68,48.41h-146a3.3,3.3,0,0,1,0-6.6h146a3.3,3.3,0,1,1,0,6.6Z"></path>
          <path d="M354.68,62.35h-146a3.3,3.3,0,0,1,0-6.6h146a3.3,3.3,0,1,1,0,6.6Z"></path>
          <path d="M250,76.29H208.71a3.31,3.31,0,0,1,0-6.61H250a3.31,3.31,0,0,1,0,6.61Z"></path>
          <path d="M354.68,76.29H313.4a3.31,3.31,0,0,1,0-6.61h41.28a3.31,3.31,0,0,1,0,6.61Z"></path>
          <path d="M250,90.22H208.71a3.3,3.3,0,0,1,0-6.6H250a3.3,3.3,0,1,1,0,6.6Z"></path>
          <path d="M250,104.16H208.71a3.3,3.3,0,0,1,0-6.6H250a3.3,3.3,0,1,1,0,6.6Z"></path>
          <path d="M250,118.1H208.71a3.31,3.31,0,0,1,0-6.61H250a3.31,3.31,0,0,1,0,6.61Z"></path>
          <path d="M250,132H208.71a3.3,3.3,0,1,1,0-6.6H250a3.3,3.3,0,1,1,0,6.6Z"></path>
          <path d="M354.68,132H313.4a3.3,3.3,0,1,1,0-6.6h41.28a3.3,3.3,0,1,1,0,6.6Z"></path>
          <path d="M354.68,146h-146a3.3,3.3,0,1,1,0-6.6h146a3.3,3.3,0,1,1,0,6.6Z"></path>
          <path d="M354.68,159.91h-146a3.3,3.3,0,0,1,0-6.6h146a3.3,3.3,0,1,1,0,6.6Z"></path>
          <path d="M354.68,173.84h-146a3.3,3.3,0,0,1,0-6.6h146a3.3,3.3,0,1,1,0,6.6Z"></path>
          <path d="M524.65,34.48h-146a3.31,3.31,0,0,1,0-6.61h146a3.31,3.31,0,0,1,0,6.61Z"></path>
          <path d="M524.65,48.41h-146a3.3,3.3,0,0,1,0-6.6h146a3.3,3.3,0,1,1,0,6.6Z"></path>
          <path d="M524.65,62.35h-146a3.3,3.3,0,0,1,0-6.6h146a3.3,3.3,0,1,1,0,6.6Z"></path>
          <path d="M420,76.29H378.68a3.31,3.31,0,0,1,0-6.61H420a3.31,3.31,0,0,1,0,6.61Z"></path>
          <path d="M524.65,76.29H483.37a3.31,3.31,0,0,1,0-6.61h41.28a3.31,3.31,0,0,1,0,6.61Z"></path>
          <path d="M420,90.22H378.68a3.3,3.3,0,0,1,0-6.6H420a3.3,3.3,0,1,1,0,6.6Z"></path>
          <path d="M420,104.16H378.68a3.3,3.3,0,0,1,0-6.6H420a3.3,3.3,0,1,1,0,6.6Z"></path>
          <path d="M420,118.1H378.68a3.31,3.31,0,0,1,0-6.61H420a3.31,3.31,0,0,1,0,6.61Z"></path>
          <path d="M420,132H378.68a3.3,3.3,0,0,1,0-6.6H420a3.3,3.3,0,1,1,0,6.6Z"></path>
          <path d="M524.65,132H483.37a3.3,3.3,0,0,1,0-6.6h41.28a3.3,3.3,0,1,1,0,6.6Z"></path>
          <path d="M524.65,146h-146a3.3,3.3,0,0,1,0-6.6h146a3.3,3.3,0,1,1,0,6.6Z"></path>
          <path d="M524.65,173.84h-146a3.3,3.3,0,0,1,0-6.6h146a3.3,3.3,0,1,1,0,6.6Z"></path>
          <path d="M524.65,159.91h-146a3.3,3.3,0,0,1,0-6.6h146a3.3,3.3,0,1,1,0,6.6Z"></path>
          <path d="M87.56,34.48H39.88a3.31,3.31,0,0,1,0-6.61H87.56a3.31,3.31,0,0,1,0,6.61Z"></path>
          <path d="M177,48.41H128.41a3.3,3.3,0,1,1,0-6.6H177a3.3,3.3,0,1,1,0,6.6Z"></path>
          <path d="M87.56,48.41H49.66a3.3,3.3,0,0,1,0-6.6h37.9a3.3,3.3,0,1,1,0,6.6Z"></path>
          <path d="M163.88,62.35H116.05a3.3,3.3,0,1,1,0-6.6h47.83a3.3,3.3,0,1,1,0,6.6Z"></path>
          <path d="M87.56,62.35H39.88a3.3,3.3,0,1,1,0-6.6H87.56a3.3,3.3,0,1,1,0,6.6Z"></path>
          <path d="M150.76,76.29H103.7a3.31,3.31,0,0,1,0-6.61h47.06a3.31,3.31,0,0,1,0,6.61Z"></path>
          <path d="M87.56,76.29h-55a3.31,3.31,0,0,1,0-6.61h55a3.31,3.31,0,0,1,0,6.61Z"></path>
          <path d="M137.64,90.22H12.26a3.3,3.3,0,1,1,0-6.6H137.64a3.3,3.3,0,1,1,0,6.6Z"></path>
          <path d="M124.51,104.16H44.29a3.3,3.3,0,1,1,0-6.6h80.22a3.3,3.3,0,1,1,0,6.6Z"></path>
          <path d="M137.64,118.1H33.77a3.31,3.31,0,0,1,0-6.61H137.64a3.31,3.31,0,0,1,0,6.61Z"></path>
          <path d="M150.76,132H103.7a3.3,3.3,0,1,1,0-6.6h47.06a3.3,3.3,0,1,1,0,6.6Z"></path>
          <path d="M87.56,132H54.86a3.3,3.3,0,0,1,0-6.6h32.7a3.3,3.3,0,1,1,0,6.6Z"></path>
          <path d="M163.88,146H116.05a3.3,3.3,0,1,1,0-6.6h47.83a3.3,3.3,0,1,1,0,6.6Z"></path>
          <path d="M87.56,146H42.21a3.3,3.3,0,0,1,0-6.6H87.56a3.3,3.3,0,1,1,0,6.6Z"></path>
          <path d="M177,159.91H128.41a3.3,3.3,0,0,1,0-6.6H177a3.3,3.3,0,1,1,0,6.6Z"></path>
          <path d="M87.56,159.91H27.9a3.3,3.3,0,1,1,0-6.6H87.56a3.3,3.3,0,0,1,0,6.6Z"></path>
          <path d="M190.12,173.84H140.76a3.3,3.3,0,1,1,0-6.6h49.36a3.3,3.3,0,0,1,0,6.6Z"></path>
          <path d="M87.56,173.84H33.77a3.3,3.3,0,0,1,0-6.6H87.56a3.3,3.3,0,0,1,0,6.6Z"></path>
          <path d="M34.23,31.17a3.3,3.3,0,1,1-3.3-3.3A3.31,3.31,0,0,1,34.23,31.17Z"></path>
          <circle cx="40.71" cy="45.11" r="3.3"></circle>
          <path d="M34.23,59.05a3.3,3.3,0,1,1-3.3-3.3A3.3,3.3,0,0,1,34.23,59.05Z"></path>
          <circle cx="23.59" cy="72.98" r="3.3"></circle>
          <path d="M6.6,86.92a3.3,3.3,0,1,1-3.3-3.3A3.3,3.3,0,0,1,6.6,86.92Z"></path>
          <path d="M38.63,100.86a3.3,3.3,0,1,1-3.3-3.3A3.3,3.3,0,0,1,38.63,100.86Z"></path>
          <path d="M28.12,114.8a3.3,3.3,0,1,1-3.3-3.31A3.3,3.3,0,0,1,28.12,114.8Z"></path>
          <path d="M49.21,128.73a3.3,3.3,0,1,1-3.3-3.3A3.3,3.3,0,0,1,49.21,128.73Z"></path>
          <path d="M36.55,142.67a3.3,3.3,0,1,1-3.3-3.3A3.3,3.3,0,0,1,36.55,142.67Z"></path>
          <circle cx="18.95" cy="156.61" r="3.3"></circle>
        </g>
        <path d="M524.65,201.72H17.3a3.3,3.3,0,0,1,0-6.6H524.65a3.3,3.3,0,1,1,0,6.6Z"></path>
        <path d="M28.12,170.54a3.3,3.3,0,1,1-3.3-3.3A3.3,3.3,0,0,1,28.12,170.54Z"></path>
        <path d="M11.82,198.42a3.3,3.3,0,1,1-3.3-3.3A3.3,3.3,0,0,1,11.82,198.42Z"></path>
        <g>
          <path d="M524.65,6.6H29.28a3.3,3.3,0,0,1,0-6.6H524.65a3.3,3.3,0,1,1,0,6.6Z"></path>
          <circle cx="20.29" cy="3.3" r="3.3"></circle>
        </g>
      </g>
    </g>
  </g>
</svg>


